/* XPM */
static const char * Function_lock_xpm[] = {
"16 16 36 1",
" 	c None",
".	c #2F2AC9",
"+	c #3834D3",
"@	c #6460DD",
"#	c #7C79E2",
"$	c #918EE7",
"%	c #9795E8",
"&	c #322DD2",
"*	c #B0AEED",
"=	c #ACAAED",
"-	c #3732D3",
";	c #A6A4EB",
">	c #A19FEA",
",	c #2F2701",
"'	c #403CD5",
")	c #9492E7",
"!	c #887003",
"~	c #4844D7",
"{	c #8986E5",
"]	c #4F4BD8",
"^	c #7E7BE2",
"/	c #5A56DB",
"(	c #000000",
"_	c #7471E0",
":	c #625EDD",
"<	c #615DDC",
"[	c #6965DE",
"}	c #6A67DE",
"|	c #726FE0",
"1	c #716DE0",
"2	c #FFFFFF",
"3	c #7976E1",
"4	c #7F7CE3",
"5	c #817EE3",
"6	c #8481E4",
"7	c #8683E4",
"                ",
"   ..........   ",
"  +@#$%%%%$#@+  ",
" &$***====***$& ",
" -;>>>>>,,,,,;+ ",
" ')))))!,!!!))' ",
" ~{{{{{!,{{{{{~ ",
" ]^^^^^!,,,^^^] ",
" /(((__!,!____/ ",
" (:::(:!,::<:<< ",
" ([[[([!,[[}}[} ",
" (((((|!||||||1 ",
" ((2((333333333 ",
" ((2((45455555  ",
" (((((6666667   ",
"                "};
