/* XPM */
static const char * Param_xpm[] = {
"16 16 25 1",
" 	c None",
".	c #AB2D65",
"+	c #E5A7FF",
"@	c #E8B1FF",
"#	c #AA3061",
"$	c #E098F2",
"%	c #DF97F1",
"&	c #A9335D",
"*	c #DC8DDD",
"=	c #AA385B",
"-	c #D573BD",
";	c #AC3853",
">	c #CE5C97",
",	c #B3374B",
"'	c #B63645",
")	c #B73544",
"!	c #B73541",
"~	c #BD333A",
"{	c #BE3239",
"]	c #BD3337",
"^	c #C43430",
"/	c #C23330",
"(	c #CB372B",
"_	c #CC382C",
":	c #CA372C",
"                ",
"                ",
"                ",
"   ..........   ",
"   .+++++++@#   ",
"   .$$$$$$$%&   ",
"   .********=   ",
"   .--------;   ",
"   .>>>>>>>>,   ",
"   '''''''')!   ",
"   ~~~~~~~~{]   ",
"   ^^^^^^^/^/   ",
"   (_(((((:((   ",
"                ",
"                ",
"                "};
