/* XPM */
static const char * Variable_xpm[] = {
"16 16 52 1",
" 	c None",
".	c #AC286C",
"+	c #AD276C",
"@	c #B7337E",
"#	c #CC6EC4",
"$	c #D585E1",
"%	c #DD95F5",
"&	c #E19DFD",
"*	c #D686E2",
"=	c #B6347D",
"-	c #AB2D65",
";	c #DF96F4",
">	c #EFC5FF",
",	c #EFC3FF",
"'	c #DE95F3",
")	c #AB2F61",
"!	c #E8B1FF",
"~	c #E5A7FF",
"{	c #2F2701",
"]	c #AA3061",
"^	c #AA345E",
"/	c #E098F2",
"(	c #887003",
"_	c #DF97F1",
":	c #A9335D",
"<	c #AA385B",
"[	c #DC8DDD",
"}	c #AD3954",
"|	c #D573BD",
"1	c #AC3853",
"2	c #B3374B",
"3	c #CE5C97",
"4	c #B73544",
"5	c #B73541",
"6	c #B63645",
"7	c #BD333A",
"8	c #BD3336",
"9	c #BE3239",
"0	c #BD3337",
"a	c #C5332F",
"b	c #C43430",
"c	c #C23330",
"d	c #CB372B",
"e	c #CC382C",
"f	c #CA372C",
"g	c #D23C28",
"h	c #D03C28",
"i	c #D13B27",
"j	c #D73E25",
"k	c #D83D24",
"l	c #D74225",
"m	c #D64224",
"                ",
"   .+.+.....+   ",
"  @#$%&&&&%*#=  ",
" -;>>>,,,,>>>'- ",
" )!~~~~~{~~~{!] ",
" ^/////({//({_: ",
" <[[[[[({[[({[< ",
" }|||||({||({|1 ",
" 233333({33({32 ",
" 4566666({({645 ",
" 77777777({7890 ",
" aabbbbbbbbbcbc ",
" dddddedddddfdd ",
"  gghhgggggggi  ",
"   jkljjlmjlk   ",
"                "};
