/* XPM */
static const char * Variable_link_xpm[] = {
"16 16 51 1",
" 	c None",
".	c #AC286C",
"+	c #AD276C",
"@	c #B7337E",
"#	c #CC6EC4",
"$	c #D585E1",
"%	c #DD95F5",
"&	c #E19DFD",
"*	c #D686E2",
"=	c #B6347D",
"-	c #AB2D65",
";	c #DF96F4",
">	c #EFC5FF",
",	c #EFC3FF",
"'	c #DE95F3",
")	c #AB2F61",
"!	c #E8B1FF",
"~	c #E5A7FF",
"{	c #2F2701",
"]	c #AA3061",
"^	c #AA345E",
"/	c #E098F2",
"(	c #887003",
"_	c #DF97F1",
":	c #A9335D",
"<	c #AA385B",
"[	c #DC8DDD",
"}	c #AD3954",
"|	c #D573BD",
"1	c #AC3853",
"2	c #DDDDDD",
"3	c #000000",
"4	c #CE5C97",
"5	c #B3374B",
"6	c #B63645",
"7	c #B73544",
"8	c #B73541",
"9	c #BD333A",
"0	c #BD3336",
"a	c #BE3239",
"b	c #BD3337",
"c	c #C43430",
"d	c #C23330",
"e	c #CB372B",
"f	c #CA372C",
"g	c #D23C28",
"h	c #D13B27",
"i	c #D73E25",
"j	c #D74225",
"k	c #D64224",
"l	c #D83D24",
"                ",
"   .+.+.....+   ",
"  @#$%&&&&%*#=  ",
" -;>>>,,,,>>>'- ",
" )!~~~~~{~~~{!] ",
" ^/////({//({_: ",
" <[[[[[({[[({[< ",
" }|||||({||({|1 ",
" 222322({44({45 ",
" 2223326({({678 ",
" 23333399({90ab ",
" 332332cccccdcd ",
" 322322eeeeefee ",
" 322222ggggggh  ",
" 322222ijkijl   ",
"                "};
