/* XPM */
static const char * SubSign_xpm[] = {
"15 5 2 1",
" 	c #ffffff",
".	c #000000",
" .....   ..... ",
".     . .     .",
".     ...     .",
".     . .     .",
" .....   ..... "};
