/* XPM */
static const char * cube_green_xpm[] = {
"16 16 102 2",
"  	c None",
". 	c #006A00",
"+ 	c #037A01",
"@ 	c #098206",
"# 	c #006C00",
"$ 	c #1BA113",
"% 	c #33AB22",
"& 	c #47BD30",
"* 	c #58D03B",
"= 	c #63DE42",
"- 	c #5CDB3E",
"; 	c #53D437",
"> 	c #49CD30",
", 	c #2EAF1F",
"' 	c #169210",
") 	c #058203",
"! 	c #007800",
"~ 	c #178E10",
"{ 	c #B3FF74",
"] 	c #9FFF6B",
"^ 	c #93FD61",
"/ 	c #85F359",
"( 	c #7BEA51",
"_ 	c #70E44B",
": 	c #6BE148",
"< 	c #68E046",
"[ 	c #72E94C",
"} 	c #63DE41",
"| 	c #36BA24",
"1 	c #088A05",
"2 	c #006D00",
"3 	c #0D8507",
"4 	c #8AEE51",
"5 	c #87ED54",
"6 	c #96FB62",
"7 	c #9EFF6B",
"8 	c #9BFF67",
"9 	c #A4FF6D",
"0 	c #81EC56",
"a 	c #4AC530",
"b 	c #10950A",
"c 	c #007C00",
"d 	c #007E00",
"e 	c #007F00",
"f 	c #007900",
"g 	c #6DD235",
"h 	c #6ACF36",
"i 	c #72D73E",
"j 	c #82E64D",
"k 	c #8AF65E",
"l 	c #008B00",
"m 	c #008200",
"n 	c #008300",
"o 	c #008400",
"p 	c #007000",
"q 	c #55C729",
"r 	c #53C229",
"s 	c #5AC52C",
"t 	c #63C82F",
"u 	c #80F057",
"v 	c #008A00",
"w 	c #008600",
"x 	c #007B00",
"y 	c #006800",
"z 	c #3AB71C",
"A 	c #3FB71E",
"B 	c #45BA21",
"C 	c #49BB22",
"D 	c #7BE954",
"E 	c #008000",
"F 	c #007400",
"G 	c #006600",
"H 	c #20A70F",
"I 	c #29AD13",
"J 	c #2FB017",
"K 	c #33B017",
"L 	c #6FDF4A",
"M 	c #006F00",
"N 	c #099804",
"O 	c #11A308",
"P 	c #18A50C",
"Q 	c #1AA50C",
"R 	c #5FD23E",
"S 	c #007500",
"T 	c #007100",
"U 	c #009900",
"V 	c #029A01",
"W 	c #029B00",
"X 	c #4AC332",
"Y 	c #007A00",
"Z 	c #006E00",
"` 	c #006900",
" .	c #008E00",
"..	c #008F00",
"+.	c #35B123",
"@.	c #007700",
"#.	c #007200",
"$.	c #209C16",
"%.	c #007600",
"&.	c #007300",
"*.	c #006B00",
"=.	c #0D8408",
"                                ",
"            . + @ #             ",
"    $ % & * = - ; > , ' ) !     ",
"  ~ { ] ^ / ( _ : < [ } | 1 2   ",
"  3 4 5 6 7 8 9 0 a b c d e 2   ",
"  f g h i j k l m n o m d d .   ",
"  p q r s t u n v w m d x ! y   ",
"  2 z A B C D E w m e x ! F G   ",
"  2 H I J K L e n e c ! F M G   ",
"    N O P Q R x e c ! S T #     ",
"    n U V W X Y c f S T Z `     ",
"      f  ...+.@.f S #.Z ` y     ",
"        S E $.%.@.&.2 *.        ",
"          Z =.%.Z *.            ",
"            . .                 ",
"                                "};
