/* XPM */
static const char * cube_yellow_xpm[] = {
"16 16 134 2",
"  	c None",
". 	c #B27A00",
"+ 	c #B78500",
"@ 	c #BB8900",
"# 	c #AA7600",
"$ 	c #E2B300",
"% 	c #D9B600",
"& 	c #DCC200",
"* 	c #E5D000",
"= 	c #EEDC00",
"- 	c #EDD900",
"; 	c #E9D300",
"> 	c #E6CD00",
", 	c #D4B100",
"' 	c #C19500",
") 	c #BA8500",
"! 	c #B47800",
"~ 	c #CCA200",
"{ 	c #FFFF14",
"] 	c #FFFF33",
"^ 	c #FCFC00",
"/ 	c #F8F100",
"( 	c #F4EA00",
"_ 	c #F0E300",
": 	c #F0E100",
"< 	c #EFDE00",
"[ 	c #F6E818",
"} 	c #F0DE2E",
"| 	c #D2B219",
"1 	c #A77704",
"2 	c #9A6700",
"3 	c #C89600",
"4 	c #FFEC00",
"5 	c #FFEE02",
"6 	c #FEFB60",
"7 	c #FFFF66",
"8 	c #FFFF28",
"9 	c #FFFF5C",
"0 	c #F6F166",
"a 	c #DEC552",
"b 	c #BD9220",
"c 	c #A76F00",
"d 	c #A56F00",
"e 	c #A16D00",
"f 	c #9A6600",
"g 	c #BF8A00",
"h 	c #FFD100",
"i 	c #FFD000",
"j 	c #FED900",
"k 	c #FFE717",
"l 	c #F9F8A4",
"m 	c #C99403",
"n 	c #BE8600",
"o 	c #BB8500",
"p 	c #B68100",
"q 	c #B07D00",
"r 	c #AA7700",
"s 	c #A47100",
"t 	c #B47F00",
"u 	c #FAC700",
"v 	c #F5C200",
"w 	c #FAC600",
"x 	c #FFC800",
"y 	c #F5F28F",
"z 	c #C78F00",
"A 	c #C89500",
"B 	c #C08D00",
"C 	c #B98600",
"D 	c #B27F00",
"E 	c #AB7800",
"F 	c #A57200",
"G 	c #996600",
"H 	c #B07C00",
"I 	c #EAB700",
"J 	c #ECB900",
"K 	c #EEBB00",
"L 	c #F2BB00",
"M 	c #F5ED82",
"N 	c #C69300",
"O 	c #B88500",
"P 	c #B17E00",
"Q 	c #996500",
"R 	c #AE7B00",
"S 	c #DBA800",
"T 	c #E1AE00",
"U 	c #E3B000",
"V 	c #E8B100",
"W 	c #EFE26E",
"X 	c #C18A00",
"Y 	c #C18E00",
"Z 	c #BC8900",
"` 	c #B58200",
" .	c #A87500",
"..	c #A26F00",
"+.	c #CD9A00",
"@.	c #D7A400",
"#.	c #D8A500",
"$.	c #DCA600",
"%.	c #E7D35B",
"&.	c #B88200",
"*.	c #BB8800",
"=.	c #B78400",
"-.	c #9E6B00",
";.	c #BC8800",
">.	c #CC9900",
",.	c #CE9B00",
"'.	c #D19D00",
").	c #DEC347",
"!.	c #B07B00",
"~.	c #B38000",
"{.	c #AD7A00",
"].	c #A16E00",
"^.	c #9B6800",
"/.	c #B37F00",
"(.	c #C28F00",
"_.	c #C49100",
":.	c #D1AF35",
"<.	c #AA7500",
"[.	c #AC7900",
"}.	c #A97600",
"|.	c #A67300",
"1.	c #A37000",
"2.	c #9C6900",
"3.	c #9D6900",
"4.	c #A97400",
"5.	c #B78200",
"6.	c #C19921",
"7.	c #A47000",
"8.	c #9F6C00",
"9.	c #AB7100",
"0.	c #A26D00",
"a.	c #AD7F0E",
"b.	c #9F6B00",
"c.	c #9D6A00",
"                                ",
"            . + @ #             ",
"    $ % & * = - ; > , ' ) !     ",
"  ~ { ] ^ / ( _ : < [ } | 1 2   ",
"  3 4 5 6 7 8 9 0 a b c d e f   ",
"  g h i j k l m n o p q r s 2   ",
"  t u v w x y z A B C D E F G   ",
"  H I J K L M z N B O P r s Q   ",
"  R S T U V W X Y Z ` q  ...G   ",
"    +.@.#.$.%.&.*.=.P E F -.    ",
"    ;.>.,.'.).!.~.q {. .].^.    ",
"      /.(._.:.<.[.}.|.1.2.3.    ",
"        4.5.6.7.F s 8.2.9.      ",
"          0.a.b.c.c.            ",
"            G Q                 ",
"                                "};
