/* XPM */
static const char * cubes_xpm[] = {
"16 16 139 2",
"  	c None",
". 	c #2978D3",
"+ 	c #4088D8",
"@ 	c #3B85D7",
"# 	c #3380D3",
"$ 	c #2B77CF",
"% 	c #2472CB",
"& 	c #296DC7",
"* 	c #0950BF",
"= 	c #54B6FF",
"- 	c #76C7FF",
"; 	c #86CAFF",
"> 	c #95CFFF",
", 	c #7FBBF6",
"' 	c #2F80D6",
") 	c #095DC1",
"! 	c #004AB3",
"~ 	c #008CF5",
"{ 	c #0093FD",
"] 	c #0094FD",
"^ 	c #009BFF",
"/ 	c #3B8DDE",
"( 	c #004DB8",
"_ 	c #004EB4",
": 	c #0044AD",
"< 	c #0080E7",
"[ 	c #0086EC",
"} 	c #0087ED",
"| 	c #008BF3",
"1 	c #307FD4",
"2 	c #004BB2",
"3 	c #0048AE",
"4 	c #0042B4",
"5 	c #006FDF",
"6 	c #0079E1",
"7 	c #007AE0",
"8 	c #007FE6",
"9 	c #2470CB",
"0 	c #0046AD",
"a 	c #0042A9",
"b 	c #003BB5",
"c 	c #DB9B00",
"d 	c #0766C3",
"e 	c #0068DC",
"f 	c #006DD5",
"g 	c #0072D9",
"h 	c #1861BE",
"i 	c #0040A9",
"j 	c #0033AA",
"k 	c #002D9D",
"l 	c #D6BD02",
"m 	c #FDDC12",
"n 	c #FFD600",
"o 	c #9C973D",
"p 	c #1C599B",
"q 	c #0046CB",
"r 	c #0051CC",
"s 	c #0041BA",
"t 	c #0027A8",
"u 	c #237276",
"v 	c #43C52C",
"w 	c #2CB618",
"x 	c #20B216",
"y 	c #E6C100",
"z 	c #FFF901",
"A 	c #FFFF27",
"B 	c #FFFF36",
"C 	c #FFE229",
"D 	c #BC7B00",
"E 	c #2B6A47",
"F 	c #429581",
"G 	c #98FF5F",
"H 	c #92FF55",
"I 	c #7EF051",
"J 	c #7EF054",
"K 	c #3BBB27",
"L 	c #007800",
"M 	c #D9A300",
"N 	c #F8C200",
"O 	c #FDC900",
"P 	c #FFE50D",
"Q 	c #C7A029",
"R 	c #B67000",
"S 	c #4FA214",
"T 	c #6CDB32",
"U 	c #76DB3F",
"V 	c #88EB52",
"W 	c #A3FF6A",
"X 	c #0C9309",
"Y 	c #007B00",
"Z 	c #007400",
"` 	c #CA9400",
" .	c #E3AF00",
"..	c #E6B300",
"+.	c #F4C309",
"@.	c #C29B24",
"#.	c #B26B00",
"$.	c #379C12",
"%.	c #3DBB20",
"&.	c #4ABE25",
"*.	c #56C228",
"=.	c #75DE44",
"-.	c #007700",
";.	c #006F00",
">.	c #B98800",
",.	c #CE9B00",
"'.	c #D4A000",
").	c #DFAC00",
"!.	c #BC921C",
"~.	c #AE6500",
"{.	c #179405",
"].	c #15A80C",
"^.	c #26AB12",
"/.	c #32B118",
"(.	c #52C730",
"_.	c #007500",
":.	c #007600",
"<.	c #006C00",
"[.	c #AD7800",
"}.	c #B58200",
"|.	c #C39100",
"1.	c #B5860E",
"2.	c #AC6400",
"3.	c #108100",
"4.	c #008F00",
"5.	c #019701",
"6.	c #089E04",
"7.	c #28AE1A",
"8.	c #007200",
"9.	c #006E00",
"0.	c #006800",
"a.	c #9F6C00",
"b.	c #A87201",
"c.	c #007A00",
"d.	c #007E00",
"e.	c #008700",
"f.	c #0D9108",
"g.	c #007300",
"h.	c #006D00",
"                                ",
"        . + @ # $ % & *         ",
"        = - ; > , ' ) !         ",
"        ~ { ] ^ / ( _ :         ",
"        < [ } | 1 2 3 4         ",
"        5 6 7 8 9 0 a b         ",
"      c d e f g h i j k         ",
"  l m n o p q r s t u v w x     ",
"  y z A B C D E F G H I J K L   ",
"  M N O P Q R S T U V W X Y Z   ",
"  `  ...+.@.#.$.%.&.*.=.-.Y ;.  ",
"  >.,.'.).!.~.{.].^./.(._.:.<.  ",
"    [.}.|.1.2.3.4.5.6.7.8.9.0.  ",
"        a.b.    c.d.e.f.;.g.    ",
"                    h.;.        ",
"                                "};
