/* XPM */
static const char * Folder_code_xpm[] = {
"16 16 5 1",
" 	c None",
".	c #808000",
"+	c #808080",
"@	c #FFFF00",
"#	c #000000",
"                ",
"  .....+        ",
" .@@@@@.+       ",
".@...........   ",
".@@@@@@@@@@@@.+ ",
".@@@@@@@@@@@@.+ ",
".@#@@#@@##@@##+ ",
".#@@#@#@#@#@#.+ ",
".#@@#@#@#@#@##+ ",
".#@@#@#@#@#@#.+ ",
".@#@@#@@##@@##+ ",
".@@@@@@@@@@@@.+ ",
" ............+  ",
"  +++++++++++   ",
"                ",
"                "};
