/* XPM */
static const char * Function_xpm[] = {
"16 16 34 1",
" 	c None",
".	c #2F2AC9",
"+	c #3834D3",
"@	c #6460DD",
"#	c #7C79E2",
"$	c #918EE7",
"%	c #9795E8",
"&	c #322DD2",
"*	c #B0AEED",
"=	c #ACAAED",
"-	c #3732D3",
";	c #A6A4EB",
">	c #A19FEA",
",	c #2F2701",
"'	c #403CD5",
")	c #9492E7",
"!	c #887003",
"~	c #4844D7",
"{	c #8986E5",
"]	c #4F4BD8",
"^	c #7E7BE2",
"/	c #5A56DB",
"(	c #7471E0",
"_	c #615DDC",
":	c #625EDD",
"<	c #6965DE",
"[	c #6A67DE",
"}	c #726FE0",
"|	c #716DE0",
"1	c #7976E1",
"2	c #817EE3",
"3	c #7F7CE3",
"4	c #8481E4",
"5	c #8683E4",
"                ",
"   ..........   ",
"  +@#$%%%%$#@+  ",
" &$***====***$& ",
" -;>>>>>,,,,,;+ ",
" ')))))!,!!!))' ",
" ~{{{{{!,{{{{{~ ",
" ]^^^^^!,,,^^^] ",
" /(((((!,!((((/ ",
" _:::::!,::_:__ ",
" <<<<<<!,<<[[<[ ",
" }}}}}}!}}}}}}| ",
" 11111111111111 ",
"  223232322222  ",
"   4544444445   ",
"                "};
