/* XPM */
static const char * Variable_locked_xpm[] = {
"16 16 52 1",
" 	c None",
".	c #AC286C",
"+	c #AD276C",
"@	c #B7337E",
"#	c #CC6EC4",
"$	c #D585E1",
"%	c #DD95F5",
"&	c #E19DFD",
"*	c #D686E2",
"=	c #B6347D",
"-	c #AB2D65",
";	c #DF96F4",
">	c #EFC5FF",
",	c #EFC3FF",
"'	c #DE95F3",
")	c #AB2F61",
"!	c #E8B1FF",
"~	c #E5A7FF",
"{	c #2F2701",
"]	c #AA3061",
"^	c #AA345E",
"/	c #E098F2",
"(	c #887003",
"_	c #DF97F1",
":	c #A9335D",
"<	c #AA385B",
"[	c #DC8DDD",
"}	c #AD3954",
"|	c #D573BD",
"1	c #AC3853",
"2	c #B3374B",
"3	c #000000",
"4	c #CE5C97",
"5	c #B63645",
"6	c #B73544",
"7	c #B73541",
"8	c #BD333A",
"9	c #BD3336",
"0	c #BE3239",
"a	c #BD3337",
"b	c #C43430",
"c	c #C23330",
"d	c #FFFFFF",
"e	c #CC382C",
"f	c #CB372B",
"g	c #CA372C",
"h	c #D23C28",
"i	c #D13B27",
"j	c #D73E25",
"k	c #D74225",
"l	c #D64224",
"m	c #D83D24",
"                ",
"   .+.+.....+   ",
"  @#$%&&&&%*#=  ",
" -;>>>,,,,>>>'- ",
" )!~~~~~{~~~{!] ",
" ^/////({//({_: ",
" <[[[[[({[[({[< ",
" }|||||({||({|1 ",
" 233344({44({42 ",
" 3555355({({567 ",
" 38883888({890a ",
" 33333bbbbbbcbc ",
" 33d33efffffgff ",
" 33d33hhhhhhhi  ",
" 33333jjkljkm   ",
"                "};
