/* XPM */
static const char * Condition_locked_xpm[] = {
"16 16 59 1",
" 	c None",
".	c #BF8814",
"+	c #BF8714",
"@	c #BF8715",
"#	c #BF8815",
"$	c #C69324",
"%	c #D6B263",
"&	c #DFC487",
"*	c #E7D2A2",
"=	c #EAD8B0",
"-	c #E0C488",
";	c #C69424",
">	c #C59012",
",	c #E8D3A1",
"'	c #F3E9D0",
")	c #F3E8CE",
"!	c #F4E9D0",
"~	c #E8D2A0",
"{	c #C99411",
"]	c #F0E2BF",
"^	c #EFDFB7",
"/	c #2F2701",
"(	c #C99511",
"_	c #CE9B10",
":	c #EBD69E",
"<	c #887003",
"[	c #EBD69D",
"}	c #CD9A0F",
"|	c #D3A10E",
"1	c #E8CE81",
"2	c #D8A80D",
"3	c #E6C762",
"4	c #D8A80C",
"5	c #DEAF0B",
"6	c #000000",
"7	c #E5C144",
"8	c #E5C244",
"9	c #E3B609",
"0	c #E2B609",
"a	c #E3B509",
"b	c #E3B508",
"c	c #E8BC07",
"d	c #E9BD07",
"e	c #E9BC07",
"f	c #E8BD07",
"g	c #EDC306",
"h	c #EDC205",
"i	c #FFFFFF",
"j	c #F2C805",
"k	c #F2C904",
"l	c #F2C804",
"m	c #F1C904",
"n	c #F6CD03",
"o	c #F6CE03",
"p	c #F6CE02",
"q	c #F9D202",
"r	c #F9D302",
"s	c #F9D201",
"t	c #FAD202",
"                ",
"   .+.@#....+   ",
"  $%&*====*-%;  ",
" >,'''))))'!'~> ",
" {]^^^^^^///^]( ",
" _::::::/<<</[} ",
" |11111</11</1| ",
" 233333</333334 ",
" 566677</777885 ",
" 690060</00a/ab ",
" 6ccc6c</ccd/ef ",
" 66666gg<///<gh ",
" 66i66jkl<<<mkk ",
" 66i66nonoooop  ",
" 66666qqrsqrt   ",
"                "};
