/* XPM */
static const char * Condition_link_xpm[] = {
"16 16 57 1",
" 	c None",
".	c #BF8814",
"+	c #BF8714",
"@	c #BF8715",
"#	c #BF8815",
"$	c #C69324",
"%	c #D6B263",
"&	c #DFC487",
"*	c #E7D2A2",
"=	c #EAD8B0",
"-	c #E0C488",
";	c #C69424",
">	c #C59012",
",	c #E8D3A1",
"'	c #F3E9D0",
")	c #F3E8CE",
"!	c #F4E9D0",
"~	c #E8D2A0",
"{	c #C99411",
"]	c #F0E2BF",
"^	c #EFDFB7",
"/	c #2F2701",
"(	c #C99511",
"_	c #CE9B10",
":	c #EBD69E",
"<	c #887003",
"[	c #EBD69D",
"}	c #CD9A0F",
"|	c #D3A10E",
"1	c #E8CE81",
"2	c #D8A80D",
"3	c #E6C762",
"4	c #D8A80C",
"5	c #DDDDDD",
"6	c #000000",
"7	c #E5C144",
"8	c #E5C244",
"9	c #DEAF0B",
"0	c #E2B609",
"a	c #E3B509",
"b	c #E3B508",
"c	c #E8BC07",
"d	c #E9BD07",
"e	c #E9BC07",
"f	c #E8BD07",
"g	c #EDC306",
"h	c #EDC205",
"i	c #F2C904",
"j	c #F2C804",
"k	c #F1C904",
"l	c #F6CE03",
"m	c #F6CD03",
"n	c #F6CE02",
"o	c #F9D202",
"p	c #F9D302",
"q	c #F9D201",
"r	c #FAD202",
"                ",
"   .+.@#....+   ",
"  $%&*====*-%;  ",
" >,'''))))'!'~> ",
" {]^^^^^^///^]( ",
" _::::::/<<</[} ",
" |11111</11</1| ",
" 233333</333334 ",
" 555655</777889 ",
" 555665</00a/ab ",
" 566666</ccd/ef ",
" 665665g<///<gh ",
" 655655ij<<<kii ",
" 655555lmlllln  ",
" 655555opqopr   ",
"                "};
