/* XPM */
static const char * Condition_xpm[] = {
"16 16 60 1",
" 	c None",
".	c #BF8814",
"+	c #BF8714",
"@	c #BF8715",
"#	c #BF8815",
"$	c #C69324",
"%	c #D6B263",
"&	c #DFC487",
"*	c #E7D2A2",
"=	c #EAD8B0",
"-	c #E0C488",
";	c #C69424",
">	c #C59012",
",	c #E8D3A1",
"'	c #F3E9D0",
")	c #F3E8CE",
"!	c #F4E9D0",
"~	c #E8D2A0",
"{	c #C99411",
"]	c #F0E2BF",
"^	c #EFDFB7",
"/	c #2F2701",
"(	c #C99511",
"_	c #CE9B10",
":	c #EBD69E",
"<	c #887003",
"[	c #EBD69D",
"}	c #CD9A0F",
"|	c #D3A10E",
"1	c #E8CE81",
"2	c #D8A80D",
"3	c #E6C762",
"4	c #D8A80C",
"5	c #DEAF0B",
"6	c #E5C144",
"7	c #E5C244",
"8	c #E3B509",
"9	c #E3B609",
"0	c #E2B609",
"a	c #E3B508",
"b	c #E8BC07",
"c	c #E9BD07",
"d	c #E9BC07",
"e	c #E8BD07",
"f	c #EEC305",
"g	c #EDC306",
"h	c #EDC205",
"i	c #F2C804",
"j	c #F2C904",
"k	c #F2C805",
"l	c #F1C904",
"m	c #F6CE03",
"n	c #F5CD03",
"o	c #F5CE03",
"p	c #F6CD03",
"q	c #F6CE02",
"r	c #F9D202",
"s	c #FAD202",
"t	c #F9D302",
"u	c #F9D201",
"                ",
"   .+.@#....+   ",
"  $%&*====*-%;  ",
" >,'''))))'!'~> ",
" {]^^^^^^///^]( ",
" _::::::/<<</[} ",
" |11111</11</1| ",
" 233333</333334 ",
" 566666</666775 ",
" 890000</008/8a ",
" bbbbbb</bbc/de ",
" ffggggg<///<gh ",
" iiijikji<<<ljj ",
"  mmnopmpmmmmq  ",
"   rstrrturts   ",
"                "};
