/* XPM */
static const char * Event_xpm[] = {
"16 16 29 1",
" 	c None",
".	c #74EE53",
"+	c #72EE51",
"@	c #7EEF60",
"#	c #9AF382",
"$	c #ADF59A",
"%	c #B9F6A9",
"&	c #C1F7B2",
"*	c #7AEF5A",
"=	c #CFF9C4",
"-	c #7BEF5C",
";	c #C9F8BD",
">	c #C8F8BB",
",	c #2F2701",
"'	c #81F063",
")	c #BEF7AE",
"!	c #887003",
"~	c #89F16C",
"{	c #B6F6A5",
"]	c #8EF174",
"^	c #96F27D",
"/	c #A8F493",
"(	c #99F380",
"_	c #A0F38A",
":	c #A5F48F",
"<	c #ACF598",
"[	c #B0F59E",
"}	c #AFF59C",
"|	c #B3F6A1",
"                ",
"   .+.+.....+   ",
"  @#$%&&&&%$#@  ",
" *%==========%* ",
" -;>>>>>,,,,,;@ ",
" ')))))!,!!!))' ",
" ~{{{{{!,{{{{{~ ",
" ]$$$$$!,,,$$$] ",
" ^/////!,!////^ ",
" (#####!,##(#(( ",
" ______!,,,,,__ ",
" //////!!!!!//: ",
" <<<<<<<<<<<<<< ",
"  [[}[}[}[[[[[  ",
"   ||||||||||   ",
"                "};
