/* XPM */
static const char * CompState_xpm[] = {
"16 16 3 1",
" 	c None",
".	c #000000",
"+	c #FFFFFF",
"                ",
"                ",
"                ",
"      ....      ",
"    ..++++..    ",
"   .++++++++.   ",
"  .++...+++++.  ",
"  .++++++++++.  ",
"  .++...+++++.  ",
"  .++++++++++.  ",
"   .++++++++.   ",
"    ..++++..    ",
"      ....      ",
"                ",
"                ",
"                "};
