/* XPM */
static const char * Action_link_xpm[] = {
"16 16 36 1",
" 	c None",
".	c #4FC4C4",
"+	c #4DC3C3",
"@	c #60CACA",
"#	c #8CD8D8",
"$	c #A6E1E1",
"%	c #BBE8E8",
"&	c #C2EBEB",
"*	c #58C7C7",
"=	c #DCF3F3",
"-	c #D9F2F2",
";	c #5EC9C9",
">	c #D1EFEF",
",	c #CDEEEE",
"'	c #2F2701",
")	c #67CCCC",
"!	c #BFEAEA",
"~	c #887003",
"{	c #70CFCF",
"]	c #B4E6E6",
"^	c #78D1D1",
"/	c #A8E1E1",
"(	c #DDDDDD",
"_	c #000000",
":	c #9DDEDE",
"<	c #82D5D5",
"[	c #89D7D7",
"}	c #92DBDB",
"|	c #94DBDB",
"1	c #9CDEDE",
"2	c #9ADDDD",
"3	c #A3E0E0",
"4	c #ABE2E2",
"5	c #A9E2E2",
"6	c #AFE4E4",
"7	c #B0E4E4",
"                ",
"   .+.+.....+   ",
"  @#$%&&&&%$#@  ",
" *%===----===%* ",
" ;>,,,,,,''',>@ ",
" )!!!!!!'~~~'!) ",
" {]]]]]~']]~']{ ",
" ^/////~'//~'/^ ",
" (((_((~''''':< ",
" (((__(~'~~~'[[ ",
" (_____~'}}~'}| ",
" __(__(~111~112 ",
" _((_((33333333 ",
" _(((((4544444  ",
" _(((((666667   ",
"                "};
