/* XPM */
static const char * Action_locked_xpm[] = {
"16 16 37 1",
" 	c None",
".	c #4FC4C4",
"+	c #4DC3C3",
"@	c #60CACA",
"#	c #8CD8D8",
"$	c #A6E1E1",
"%	c #BBE8E8",
"&	c #C2EBEB",
"*	c #58C7C7",
"=	c #DCF3F3",
"-	c #D9F2F2",
";	c #5EC9C9",
">	c #D1EFEF",
",	c #CDEEEE",
"'	c #2F2701",
")	c #67CCCC",
"!	c #BFEAEA",
"~	c #887003",
"{	c #70CFCF",
"]	c #B4E6E6",
"^	c #78D1D1",
"/	c #A8E1E1",
"(	c #82D5D5",
"_	c #000000",
":	c #9DDEDE",
"<	c #8BD8D8",
"[	c #89D7D7",
"}	c #92DBDB",
"|	c #94DBDB",
"1	c #9CDEDE",
"2	c #9ADDDD",
"3	c #FFFFFF",
"4	c #A3E0E0",
"5	c #A9E2E2",
"6	c #ABE2E2",
"7	c #AFE4E4",
"8	c #B0E4E4",
"                ",
"   .+.+.....+   ",
"  @#$%&&&&%$#@  ",
" *%===----===%* ",
" ;>,,,,,,''',>@ ",
" )!!!!!!'~~~'!) ",
" {]]]]]~']]~']{ ",
" ^/////~'//~'/^ ",
" (___::~''''':( ",
" _<<<_<~'~~~'[[ ",
" _}}}_}~'}}~'}| ",
" _____1~111~112 ",
" __3__444444444 ",
" __3__56566666  ",
" _____7777778   ",
"                "};
