/* XPM */
static const char * MemberFunction_xpm[] = {
"16 16 35 1",
" 	c None",
".	c #4FC4C4",
"+	c #4DC3C3",
"@	c #60CACA",
"#	c #8CD8D8",
"$	c #A6E1E1",
"%	c #BBE8E8",
"&	c #C2EBEB",
"*	c #58C7C7",
"=	c #DCF3F3",
"-	c #D9F2F2",
";	c #5EC9C9",
">	c #D1EFEF",
",	c #CDEEEE",
"'	c #2F2701",
")	c #67CCCC",
"!	c #BFEAEA",
"~	c #887003",
"{	c #70CFCF",
"]	c #B4E6E6",
"^	c #78D1D1",
"/	c #A8E1E1",
"(	c #82D5D5",
"_	c #9DDEDE",
":	c #89D7D7",
"<	c #8BD8D8",
"[	c #92DBDB",
"}	c #94DBDB",
"|	c #9CDEDE",
"1	c #9ADDDD",
"2	c #A3E0E0",
"3	c #ABE2E2",
"4	c #A9E2E2",
"5	c #AFE4E4",
"6	c #B0E4E4",
"                ",
"   .+.+.....+   ",
"  @#$%&&&&%$#@  ",
" *%===----===%* ",
" ;>,,,,,'''''>@ ",
" )!!!!!~'~~~!!) ",
" {]]]]]~']]!!]{ ",
" ^/////~'''''/^ ",
" (_____~'~~~__( ",
" :<<<<<~'<<<<:: ",
" [[[[[[~'[[[[[} ",
" ||||||~||||||1 ",
" 22222222222222 ",
"  334343433333  ",
"   5655555556   ",
"                "};
