/* XPM */
static const char * scriptimport_xpm[] = {
"16 16 95 2",
"  	c None",
". 	c #547E7E",
"+ 	c #BACBCB",
"@ 	c #FDFEFE",
"# 	c #FCFDFD",
"$ 	c #F2F6F6",
"% 	c #6E9191",
"& 	c #477171",
"* 	c #F3FCFC",
"= 	c #EBF3F3",
"- 	c #F1FAFA",
"; 	c #92AEAE",
"> 	c #3E6969",
", 	c #E5F4F4",
"' 	c #D9E8E8",
") 	c #345F5F",
"! 	c #E1F2F2",
"~ 	c #B3C4C4",
"{ 	c #AABBBB",
"] 	c #C4D5D5",
"^ 	c #D4E5E5",
"/ 	c #2A5555",
"( 	c #E3F3F3",
"_ 	c #9FB0B0",
": 	c #FEFEFE",
"< 	c #ADBEBE",
"[ 	c #C9D9D9",
"} 	c #D6E6E6",
"| 	c #2A4E4E",
"1 	c #97A8A8",
"2 	c #E4E8E8",
"3 	c #F6FAFA",
"4 	c #B9CACA",
"5 	c #D1E0E0",
"6 	c #D8E8E8",
"7 	c #E4F4F4",
"8 	c #204B4B",
"9 	c #204343",
"0 	c #FFFFFF",
"a 	c #F7FAFA",
"b 	c #EEF5F5",
"c 	c #E4EFEF",
"d 	c #DCEAEA",
"e 	c #E7F5F5",
"f 	c #164242",
"g 	c #173939",
"h 	c #879898",
"i 	c #E1E6E6",
"j 	c #F8FBFB",
"k 	c #B6C4C4",
"l 	c #D7E3E3",
"m 	c #E1EDED",
"n 	c #EBF6F6",
"o 	c #0D3939",
"p 	c #063232",
"q 	c #EEF8F8",
"r 	c #809191",
"s 	c #FEFFFF",
"t 	c #99A9A9",
"u 	c #CFDBDB",
"v 	c #E6F0F0",
"w 	c #012C2C",
"x 	c #F2FAFA",
"y 	c #97A6A6",
"z 	c #7F8F8F",
"A 	c #C4CFCF",
"B 	c #ECF3F3",
"C 	c #002626",
"D 	c #F5FBFB",
"E 	c #F1F6F6",
"F 	c #002323",
"G 	c #EAF1F1",
"H 	c #E8EFEF",
"I 	c #EAF0F0",
"J 	c #EBF1F1",
"K 	c #EDF3F3",
"L 	c #EFF4F4",
"M 	c #F1F5F5",
"N 	c #F2F7F7",
"O 	c #F4F8F8",
"P 	c #F8FCFC",
"Q 	c #4F6B6B",
"R 	c #BCCDCD",
"S 	c #C1D0D0",
"T 	c #C7D5D5",
"U 	c #CEDADA",
"V 	c #D5E0E0",
"W 	c #DDE6E6",
"X 	c #E5ECEC",
"Y 	c #ECF1F1",
"Z 	c #F9FCFC",
"` 	c #2B4848",
" .	c #EAEDED",
"..	c #95A4A4",
"+.	c #032323",
"        . . . . . . . . . . .   ",
"      + @ # # # # # # # # $ %   ",
"    & * = = = = = = = = - ;     ",
"    > , ' ' ' ' ' ' ' ' , >     ",
"    ) ! ~ { ] ^ ^ ^ ^ ^ ! )     ",
"    / ( _ : < [ } } } } ( /     ",
"  | | 1 1 2 3 4 5 6 6 6 7 8     ",
"9 0 0 0 0 : a b c d d d e f     ",
"  g g h h i j k l m m m n o     ",
"    p q r s t u v v v v q p     ",
"    w x y z A B B B B B x w     ",
"    C D E E E E E E E E D C     ",
"    F G H I J K L M N O P F     ",
"    Q R S T U V W X Y $ Z F     ",
"  `  .: : : : : : : : s ..      ",
"  +.+.+.+.+.+.+.+.+.+.+.        "};
