/* XPM */
static const char * actionrun_xpm[] = {
"16 16 100 2",
"  	c None",
". 	c #ECECF0",
"+ 	c #E6E6ED",
"@ 	c #C1C3D0",
"# 	c #C7CAD6",
"$ 	c #D0D2DC",
"% 	c #E6E7EE",
"& 	c #CCCDD9",
"* 	c #A5AABE",
"= 	c #B7BBCC",
"- 	c #BEC2D2",
"; 	c #BDC0D1",
"> 	c #C7CAD8",
", 	c #D2D2DD",
"' 	c #ADAEBB",
") 	c #AAADC2",
"! 	c #B4B8CC",
"~ 	c #B2B6CA",
"{ 	c #AAAEC0",
"] 	c #B4B8CB",
"^ 	c #B6BACE",
"/ 	c #85889B",
"( 	c #B2B4C8",
"_ 	c #A2A7C0",
": 	c #B0B4CA",
"< 	c #7F829A",
"[ 	c #7F839A",
"} 	c #ACB0C7",
"| 	c #9095B1",
"1 	c #979AB2",
"2 	c #9599B2",
"3 	c #A1A6C1",
"4 	c #B4B7CF",
"5 	c #B7B9CC",
"6 	c #B3B4C7",
"7 	c #AFB2CA",
"8 	c #9A9EBA",
"9 	c #7B7E98",
"0 	c #83869D",
"a 	c #A5A8C4",
"b 	c #BFC1D7",
"c 	c #D3D3E6",
"d 	c #D8D8E8",
"e 	c #D3D3E5",
"f 	c #C1C2D8",
"g 	c #A1A5BF",
"h 	c #656983",
"i 	c #696D85",
"j 	c #8488A0",
"k 	c #C9CADC",
"l 	c #D7D7E8",
"m 	c #D6D6E8",
"n 	c #D7D7E9",
"o 	c #CACCDD",
"p 	c #797E96",
"q 	c #555971",
"r 	c #8186A1",
"s 	c #B1B3C5",
"t 	c #C2C4D4",
"u 	c #AFB2C3",
"v 	c #7A809B",
"w 	c #D2D2D9",
"x 	c #C2C3D0",
"y 	c #D1D2DC",
"z 	c #DEDEE7",
"A 	c #5C627E",
"B 	c #B7B8C4",
"C 	c #BEC1D1",
"D 	c #DEDFEA",
"E 	c #E8E8F2",
"F 	c #E2E3EE",
"G 	c #D4D5E1",
"H 	c #A6A9BB",
"I 	c #D1D3E2",
"J 	c #ADAFC2",
"K 	c #87899B",
"L 	c #C0C2D5",
"M 	c #B9BCD0",
"N 	c #A4A9C2",
"O 	c #B6B9D0",
"P 	c #A2A4B9",
"Q 	c #A5A7BF",
"R 	c #9A9EB9",
"S 	c #80849D",
"T 	c #8C8FA8",
"U 	c #ABAEC6",
"V 	c #BCBED2",
"W 	c #999CB7",
"X 	c #8D92AE",
"Y 	c #5F637C",
"Z 	c #5B5E73",
"` 	c #9296AE",
" .	c #A0A4BB",
"..	c #989CB5",
"+.	c #9CA0B8",
"@.	c #71758C",
"#.	c #53576D",
"$.	c #5F6376",
"%.	c #767C95",
"&.	c #51556A",
"          .                     ",
"      + @ # $ %                 ",
"    & * = - ; > ,               ",
"  ' ) ! ~ { ] ^ ! /             ",
"  ( _ : <   [ } | 1             ",
"  2 3 4 5   6 7 8 9             ",
"  0 a b c d e f g h             ",
"  i j k l m n o p q             ",
"      r s t u v   w x y z       ",
"          A     B C D E F G     ",
"                H I J K L M     ",
"                N O P   Q R S   ",
"                T 8 U V W X Y   ",
"                Z `  ...+.@.    ",
"                  #.$.%.&.      ",
"                                "};
