/* XPM */
static const char * configure_xpm[] = {
"16 16 68 1",
" 	c None",
".	c #E7E7E7",
"+	c #BEBEBE",
"@	c #E1E1E1",
"#	c #E8E8E8",
"$	c #E5E5E5",
"%	c #EBEBEB",
"&	c #DFDFDF",
"*	c #E4E4E4",
"=	c #DBDBDB",
"-	c #C1C1C1",
";	c #DCDCDC",
">	c #D9D9D9",
",	c #DADADA",
"'	c #D1D1D1",
")	c #B8B8B8",
"!	c #D6D6D6",
"~	c #D8D8D8",
"{	c #C0C0C0",
"]	c #AFAFAF",
"^	c #D7D7D7",
"/	c #CFCFCF",
"(	c #D2D2D2",
"_	c #CECECE",
":	c #B9B9B9",
"<	c #C4C4C4",
"[	c #CBCBCB",
"}	c #C7C7C7",
"|	c #C9C9CA",
"1	c #96B7CC",
"2	c #E0E0E1",
"3	c #C6C6C7",
"4	c #BDBDBD",
"5	c #769EC4",
"6	c #53A4E2",
"7	c #69B2E1",
"8	c #D5D5D6",
"9	c #CFCFD0",
"0	c #AEAEAE",
"a	c #125AA5",
"b	c #2A75BB",
"c	c #4E9AD5",
"d	c #67AFDF",
"e	c #D5D4D5",
"f	c #CECED0",
"g	c #DEDEDE",
"h	c #D3D3D3",
"i	c #0D4E93",
"j	c #2B75BC",
"k	c #4E9AD4",
"l	c #65AEDF",
"m	c #D4D4D5",
"n	c #CFCECF",
"o	c #0C4E93",
"p	c #2B76BC",
"q	c #4F9AD4",
"r	c #63ADDE",
"s	c #D0D0D0",
"t	c #0C4D94",
"u	c #2C77BD",
"v	c #4F9BD5",
"w	c #D4D4D4",
"x	c #0B4E96",
"y	c #2C78BE",
"z	c #55A6E4",
"A	c #C2C2C2",
"B	c #969696",
"C	c #2461A3",
"           .    ",
"  +      @#$    ",
"   %     &*   = ",
"    -    ;;> ,' ",
"     )   =!~,!{ ",
"      ] ,^/(_:  ",
"       <![      ",
"      (}|1      ",
"     234567     ",
"    89;0abcd    ",
"   efgh  ijkl   ",
"  mn>!    opqr  ",
" >  s      tuv  ",
" ~;w        xyz ",
" [AB         C  ",
"                "};
