/* XPM */
static const char * exit_xpm[] = {
"16 16 199 2",
"  	c None",
". 	c #D5ACAC",
"+ 	c #D8B0B0",
"@ 	c #DAB4B4",
"# 	c #DCB7B7",
"$ 	c #DEBBBB",
"% 	c #E0BEBE",
"& 	c #E2C2C2",
"* 	c #E3C5C5",
"= 	c #E4C6C6",
"- 	c #E3C7C7",
"; 	c #C18888",
"> 	c #CB9D9D",
", 	c #CD9D9D",
"' 	c #D0A0A0",
") 	c #D4A3A3",
"! 	c #D6A6A6",
"~ 	c #D9A8A8",
"{ 	c #DBACAC",
"] 	c #DDAFAF",
"^ 	c #DFB2B2",
"/ 	c #E0B5B5",
"( 	c #E0B8B8",
"_ 	c #E4C2C2",
": 	c #BD7E7E",
"< 	c #C28484",
"[ 	c #C68686",
"} 	c #CA8989",
"| 	c #CE8C8C",
"1 	c #D19090",
"2 	c #DCC0C0",
"3 	c #DAADAD",
"4 	c #D99797",
"5 	c #DB9A9A",
"6 	c #DD9D9D",
"7 	c #DEA0A0",
"8 	c #DEA2A2",
"9 	c #D69797",
"0 	c #B66868",
"a 	c #C07575",
"b 	c #C57777",
"c 	c #C97A7A",
"d 	c #CD7C7C",
"e 	c #D48686",
"f 	c #FCF8F8",
"g 	c #F1D2D2",
"h 	c #DA8686",
"i 	c #DC8A8A",
"j 	c #E08E8E",
"k 	c #E29191",
"l 	c #E29393",
"m 	c #CB6767",
"n 	c #B05656",
"o 	c #BF6666",
"p 	c #C46969",
"q 	c #CA8181",
"r 	c #D9B0B0",
"s 	c #D47F7F",
"t 	c #FCF7F7",
"u 	c #F2CDCD",
"v 	c #E2B0B0",
"w 	c #E6C4C4",
"x 	c #DF8484",
"y 	c #E58282",
"z 	c #E78585",
"A 	c #CC4141",
"B 	c #AE4646",
"C 	c #BE5858",
"D 	c #C67070",
"E 	c #F6EEEE",
"F 	c #FDF8F8",
"G 	c #DA8080",
"H 	c #FCF6F6",
"I 	c #F2C8C8",
"J 	c #F0BABA",
"K 	c #FFFEFE",
"L 	c #F1D6D6",
"M 	c #E87676",
"N 	c #E95959",
"O 	c #CD0606",
"P 	c #AC3A3A",
"Q 	c #BC4949",
"R 	c #E6C0C0",
"S 	c #FEFCFC",
"T 	c #DD8585",
"U 	c #D55D5D",
"V 	c #FCF5F5",
"W 	c #F3C2C2",
"X 	c #E25C5C",
"Y 	c #F4B6B6",
"Z 	c #FFFFFF",
"` 	c #ED9090",
" .	c #E6120F",
"..	c #D20F0B",
"+.	c #AC2E2E",
"@.	c #BE4444",
"#.	c #F9F0F0",
"$.	c #F0C9C9",
"%.	c #CE4242",
"&.	c #D54949",
"*.	c #F0B6B6",
"=.	c #EB8989",
"-.	c #E44D4D",
";.	c #EA5C5C",
">.	c #FEF2F2",
",.	c #F6B7B6",
"'.	c #E81912",
").	c #D61F17",
"!.	c #AC2222",
"~.	c #C03E3E",
"{.	c #E9AAAA",
"].	c #CE3232",
"^.	c #D53636",
"/.	c #DB3838",
"(.	c #E13C3C",
"_.	c #E63535",
":.	c #E61E1D",
"<.	c #FBDEDD",
"[.	c #FAD4D2",
"}.	c #EA291F",
"|.	c #DA2B20",
"1.	c #AE1515",
"2.	c #BC2525",
"3.	c #F9EAEA",
"4.	c #F0CCCC",
"5.	c #CE2626",
"6.	c #D52626",
"7.	c #DA1F1F",
"8.	c #DF1010",
"9.	c #E30404",
"0.	c #E52522",
"a.	c #FCF3F2",
"b.	c #F8B8B4",
"c.	c #EC3023",
"d.	c #DD3427",
"e.	c #AE0808",
"f.	c #B60A0A",
"g.	c #E39898",
"h.	c #FEFDFD",
"i.	c #DC6F6F",
"j.	c #D00404",
"k.	c #D90000",
"l.	c #E00000",
"m.	c #E20F0D",
"n.	c #F2ADAC",
"o.	c #FFFEFD",
"p.	c #F27068",
"q.	c #ED3729",
"r.	c #E13C2C",
"s.	c #AF0000",
"t.	c #B60000",
"u.	c #C21313",
"v.	c #F2CACA",
"w.	c #EDB4B4",
"x.	c #E56F6F",
"y.	c #E97878",
"z.	c #F6D2D2",
"A.	c #F6A6A2",
"B.	c #EC3226",
"C.	c #EE3C2C",
"D.	c #E5402F",
"E.	c #B20101",
"F.	c #B80000",
"G.	c #BF0000",
"H.	c #CA1111",
"I.	c #E88A8A",
"J.	c #FAE4E4",
"K.	c #FEF8F8",
"L.	c #FEF6F6",
"M.	c #FBD6D5",
"N.	c #F17470",
"O.	c #EC3225",
"P.	c #EE3D2E",
"Q.	c #E84433",
"R.	c #BE1515",
"S.	c #C00000",
"T.	c #C70000",
"U.	c #CE0000",
"V.	c #D70A0A",
"W.	c #E01C1C",
"X.	c #E61B1A",
"Y.	c #E6120E",
"Z.	c #EA261C",
"`.	c #EC3124",
" +	c #EE3E2E",
".+	c #D94338",
"++	c #A62725",
"@+	c #CB312F",
"#+	c #D0302D",
"$+	c #D4302D",
"%+	c #D9302D",
"&+	c #DD302D",
"*+	c #E22F2C",
"=+	c #E62E2C",
"-+	c #E73330",
";+	c #E93733",
">+	c #E93D37",
",+	c #E7433C",
"'+	c #D6453E",
"      . + @ # $ % & * = -       ",
"  ; > , ' ) ! ~ { ] ^ / ( _ '   ",
"  : < [ } | 1 2 3 4 5 6 7 8 9   ",
"  0 a b c d e f g h i j k l m   ",
"  n o p q r s t u v w x y z A   ",
"  B C D E F G H I J K L M N O   ",
"  P Q R S T U V W X Y Z `  ...  ",
"  +.@.#.$.%.&.*.=.-.;.>.,.'.).  ",
"  !.~.f {.].^./.(._.:.<.[.}.|.  ",
"  1.2.3.4.5.6.7.8.9.0.a.b.c.d.  ",
"  e.f.g.h.i.j.k.l.m.n.o.p.q.r.  ",
"  s.t.u.v.S w.x.y.z.K A.B.C.D.  ",
"  E.F.G.H.I.J.K.L.M.N.}.O.P.Q.  ",
"  R.F.S.T.U.V.W.X.Y.'.Z.`. +.+  ",
"  ++@+#+$+%+&+*+=+-+;+>+,+'+    ",
"                                "};
