/* XPM */
static const char * filenew_xpm[] = {
"16 16 47 1",
" 	c None",
".	c #F0F0F0",
"+	c #F9F9F9",
"@	c #F4F4F4",
"#	c #FCFCFC",
"$	c #FBFBFB",
"%	c #E6E6E6",
"&	c #EFEFEF",
"*	c #FAFAFA",
"=	c #EEEEEE",
"-	c #F2F2F2",
";	c #EBEBEB",
">	c #EDEDED",
",	c #F1F1F1",
"'	c #E2E2E2",
")	c #D6D6D6",
"!	c #E4E4E4",
"~	c #DFDFDF",
"{	c #D2D2D2",
"]	c #EAEAEA",
"^	c #E7E7E7",
"/	c #E5E5E5",
"(	c #F6F6F6",
"_	c #E3E3E3",
":	c #E1E1E1",
"<	c #E0E0E0",
"[	c #F3F3F3",
"}	c #DEDEDE",
"|	c #D9D9D9",
"1	c #DBDBDB",
"2	c #D4D4D4",
"3	c #E8E8E8",
"4	c #CFCFCF",
"5	c #D7D7D7",
"6	c #CACACA",
"7	c #C2C2C2",
"8	c #7A7A7A",
"9	c #797979",
"0	c #777777",
"a	c #757575",
"b	c #737373",
"c	c #727272",
"d	c #707070",
"e	c #6E6E6E",
"f	c #6D6D6D",
"g	c #6B6B6B",
"h	c #6A6A6A",
" .+++++++@      ",
" .######$.%     ",
" &######*=-;    ",
" >#######,'%)   ",
" ;#######+=!~{  ",
" ]$$$$$$$$+@.~  ",
" ^$$$$$$$$$$*^  ",
" /++++++++++(/  ",
" _(((((((((@-:  ",
" <@@@@@@@[,,,}  ",
" }......=====|  ",
" 1;;;;;;;;;;;2  ",
" |333333333334  ",
" 5%%%%%%%%%%%6  ",
" 2!!__'''::<<7  ",
"  890abcdefgh   "};
