/* XPM */
static const char * helpindex_xpm[] = {
"16 16 141 2",
"  	c None",
". 	c #CB0000",
"+ 	c #D40808",
"@ 	c #D50E0E",
"# 	c #CD0808",
"$ 	c #B90000",
"% 	c #CC0000",
"& 	c #E52A2A",
"* 	c #F89393",
"= 	c #FAC0C0",
"- 	c #F6BEBE",
"; 	c #FAC4C4",
"> 	c #F68B8B",
", 	c #D32323",
"' 	c #A70000",
") 	c #EE4040",
"! 	c #FDB5B5",
"~ 	c #F4B4B4",
"{ 	c #FBEAEA",
"] 	c #FDF6F6",
"^ 	c #FCF4F4",
"/ 	c #FCE1E1",
"( 	c #FEB7B7",
"_ 	c #DD3434",
": 	c #9B0000",
"< 	c #E41B1B",
"[ 	c #FE9595",
"} 	c #F69C9C",
"| 	c #FEFAFA",
"1 	c #FFDFDF",
"2 	c #FFADAD",
"3 	c #FDD0D0",
"4 	c #FFFFFF",
"5 	c #FFC2C2",
"6 	c #FE9090",
"7 	c #C41313",
"8 	c #F84949",
"9 	c #FF7575",
"0 	c #FAA6A6",
"a 	c #FFFAFA",
"b 	c #FF8888",
"c 	c #EF7B7B",
"d 	c #FEFCFC",
"e 	c #FDAEAE",
"f 	c #F83E3E",
"g 	c #E70F0F",
"h 	c #8F0000",
"i 	c #D30202",
"j 	c #FE4444",
"k 	c #FF4D4D",
"l 	c #FF5353",
"m 	c #FF6464",
"n 	c #FF4E4E",
"o 	c #F35656",
"p 	c #F3CFCF",
"q 	c #FEF4F4",
"r 	c #F43636",
"s 	c #F20000",
"t 	c #F00000",
"u 	c #D50202",
"v 	c #FE2222",
"w 	c #FF2424",
"x 	c #F52E2E",
"y 	c #F4D2D2",
"z 	c #FEF5F5",
"A 	c #EC9196",
"B 	c #DA6A75",
"C 	c #E1545B",
"D 	c #F00D0E",
"E 	c #9E0000",
"F 	c #CE0000",
"G 	c #FE0404",
"H 	c #FD0404",
"I 	c #F05959",
"J 	c #FEFEFE",
"K 	c #D0D5E6",
"L 	c #A6DAF8",
"M 	c #AAE3FC",
"N 	c #A9E1FA",
"O 	c #C1B6C5",
"P 	c #91191B",
"Q 	c #BA0000",
"R 	c #F90303",
"S 	c #FB3737",
"T 	c #EAC8CF",
"U 	c #A4D9F8",
"V 	c #CFFAFE",
"W 	c #CAF5FE",
"X 	c #BEF2FD",
"Y 	c #C3F7FE",
"Z 	c #A7B2BB",
"` 	c #D70C0C",
" .	c #FF1A1A",
"..	c #F04040",
"+.	c #C8B4C4",
"@.	c #A7E0FB",
"#.	c #C6F3FD",
"$.	c #CCF9FE",
"%.	c #D7FFFF",
"&.	c #DAFFFF",
"*.	c #BFD8E0",
"=.	c #A70202",
"-.	c #E12121",
";.	c #FF3434",
">.	c #F88282",
",.	c #D8DDE8",
"'.	c #A5DCF8",
").	c #B8EEFC",
"!.	c #D4FEFF",
"~.	c #E5FFFF",
"{.	c #EFFFFF",
"].	c #C1CED8",
"^.	c #9B0303",
"/.	c #C71E1E",
"(.	c #F04242",
"_.	c #FD5050",
":.	c #F66566",
"<.	c #ABB6CC",
"[.	c #B9F0FD",
"}.	c #D2FEFF",
"|.	c #E8FFFF",
"1.	c #DFE6EB",
"2.	c #9898AE",
"3.	c #8F0404",
"4.	c #9D1010",
"5.	c #A01313",
"6.	c #882025",
"7.	c #8EA1B3",
"8.	c #AAC8D4",
"9.	c #AFC2CF",
"0.	c #979AAF",
"a.	c #CAB8A2",
"b.	c #E3A135",
"c.	c #DFAF54",
"d.	c #F6D585",
"e.	c #DF9D30",
"f.	c #D9AC57",
"g.	c #F5D485",
"h.	c #D29434",
"i.	c #CA9F54",
"j.	c #A49183",
"        . + @ # $               ",
"    % & * = - ; > , '           ",
"  % ) ! ~ { ] ^ / ( _ :         ",
"  < [ } | 1 2 3 4 5 6 7         ",
". 8 9 0 a b 9 c d e f g h       ",
"i j k l m n o p q r s t :       ",
"u v w w w x y z A B C D E       ",
"F G G G H I J K L M N O P       ",
"Q R G G G S T U V W X Y Z       ",
"  `  . . ...+.@.#.$.%.&.*.      ",
"  =.-.;.;.>.,.'.).!.~.{.].      ",
"    ^./.(._.:.<.[.}.|.1.2.      ",
"        3.4.5.6.7.8.9.0.a.b.    ",
"                        c.d.e.  ",
"                          f.g.h.",
"                            i.j."};
