/* XPM */
static const char * spellcheck_xpm[] = {
"16 16 69 1",
" 	c None",
".	c #474747",
"+	c #121212",
"@	c #171717",
"#	c #0E0E0E",
"$	c #000000",
"%	c #C33117",
"&	c #CA4932",
"*	c #BE2A11",
"=	c #BE381F",
"-	c #D7604B",
";	c #ECBAB1",
">	c #DB7F70",
",	c #DF6852",
"'	c #DD4A2F",
")	c #E2725C",
"!	c #F0B8AD",
"~	c #EFB8AE",
"{	c #EEB4AC",
"]	c #D3756B",
"^	c #E47661",
"/	c #EEA090",
"(	c #EB8572",
"_	c #E7573A",
":	c #EC806B",
"<	c #F2B1A4",
"[	c #F1AEA0",
"}	c #F0AA9E",
"|	c #E5887B",
"1	c #E96C57",
"2	c #EF816C",
"3	c #EE826C",
"4	c #F39683",
"5	c #F28E7A",
"6	c #ED654A",
"7	c #F38D79",
"8	c #F6A594",
"9	c #F49E8D",
"0	c #F49C8C",
"a	c #E9806E",
"b	c #F35D40",
"c	c #F46D52",
"d	c #F5775E",
"e	c #F88D76",
"f	c #FAA290",
"g	c #F99580",
"h	c #F88A73",
"i	c #F8836C",
"j	c #EE6046",
"k	c #C82A0B",
"l	c #FB4019",
"m	c #FB4F2A",
"n	c #FD5532",
"o	c #FE5E3C",
"p	c #FE5633",
"q	c #FD4A24",
"r	c #F43209",
"s	c #CD3312",
"t	c #FD4D28",
"u	c #FF4A23",
"v	c #FF4E28",
"w	c #FF512C",
"x	c #F54A26",
"y	c #CD543A",
"z	c #FD7456",
"A	c #FF7659",
"B	c #F57053",
"C	c #CD735F",
"D	c #F38F79",
"                ",
"    .           ",
" .  . .   .     ",
"  . .  ..       ",
" +@ #  ##       ",
" $$ $$$$ $  %&* ",
"           =-;> ",
"     ,    ')!~{]",
"    ^/(  _:<[}| ",
"   1234567890a  ",
"    bcdefghij   ",
"    klmnopqr    ",
"     stuvwx     ",
"      yzAB      ",
"       CD       ",
"                "};
